<?xml version="1.0" encoding="UTF-8"?><svg id="Layer_2" xmlns="http://www.w3.org/2000/svg" width="32" height="32" viewBox="0 0 32 32"><g id="Layer_1-2"><rect width="32" height="32" fill="#2f6aa1" stroke-width="0"/><path d="M20,22.86h-8c-.32,0-.57.26-.57.57s.26.57.57.57h8c.32,0,.57-.26.57-.57s-.26-.57-.57-.57Z" fill="#fff" stroke-width="0"/><path d="M8,20c0,.95.77,1.71,1.71,1.71h12.57c.95,0,1.71-.77,1.71-1.71v-.57H8v.57Z" fill="#fff" stroke-width="0"/><path d="M24,9.71c0-.95-.77-1.71-1.71-1.71h-12.57c-.95,0-1.71.77-1.71,1.71v8.57h16v-8.57ZM14.29,15.43c0,.32-.26.57-.57.57s-.57-.26-.57-.57v-3.43c0-.32.26-.57.57-.57s.57.26.57.57v3.43ZM16.57,15.43c0,.32-.26.57-.57.57s-.57-.26-.57-.57v-1.71c0-.32.26-.57.57-.57s.57.26.57.57v1.71ZM18.86,15.43c0,.32-.26.57-.57.57s-.57-.26-.57-.57v-.57c0-.32.26-.57.57-.57s.57.26.57.57v.57Z" fill="#fff" stroke-width="0"/></g></svg>