<?xml version="1.0" encoding="UTF-8"?><svg id="Layer_2" xmlns="http://www.w3.org/2000/svg" width="32" height="32" viewBox="0 0 32 32"><g id="Layer_1-2"><rect width="32" height="32" fill="#e76f28" stroke-width="0"/><path d="M18.25,16c0,1.24-1.01,2.25-2.25,2.25s-2.25-1.01-2.25-2.25,1.01-2.25,2.25-2.25,2.25,1.01,2.25,2.25ZM23.98,18.25c.05.19.02.4-.08.57l-1.5,2.6c-.21.36-.66.49-1.02.28,0,0,0,0,0,0l-.99-.57c-.63.54-1.35.96-2.13,1.24v1.14c0,.41-.34.75-.75.75h-3c-.41,0-.75-.34-.75-.75v-1.14c-.78-.28-1.5-.69-2.13-1.23l-.99.57c-.36.21-.82.09-1.03-.27,0,0,0,0,0,0l-1.5-2.6c-.1-.17-.12-.38-.08-.57.05-.19.18-.36.35-.46l.99-.57c-.16-.81-.16-1.65,0-2.46l-.99-.57c-.17-.1-.3-.26-.35-.45-.05-.19-.02-.4.08-.57l1.5-2.6c.2-.36.66-.49,1.02-.29,0,0,0,0,0,0l.99.57c.63-.54,1.35-.95,2.13-1.23v-1.14c0-.41.34-.75.75-.75h3c.41,0,.75.34.75.75v1.14c.78.28,1.5.69,2.13,1.23l.99-.57c.36-.21.82-.09,1.03.27,0,0,0,0,0,0l1.5,2.6c.1.17.12.38.08.57-.05.19-.18.36-.35.46l-.99.57c.16.81.16,1.65,0,2.46l.99.57c.17.1.3.26.35.45h0ZM19.75,16c0-2.07-1.68-3.75-3.75-3.75s-3.75,1.68-3.75,3.75,1.68,3.75,3.75,3.75,3.75-1.68,3.75-3.75Z" fill="#fff" stroke-width="0"/></g></svg>